<svg width="24" height="24" viewBox="0 0 24 24" fill="none" xmlns="http://www.w3.org/2000/svg">
<path d="M21.8668 4.91611C21.2828 4.20954 20.5494 3.64129 19.7194 3.25229C18.8894 2.86329 17.9834 2.66323 17.0668 2.66651C15.4984 2.61902 13.9714 3.17445 12.8001 4.21851C11.6288 3.17445 10.1018 2.61902 8.53343 2.66651C7.61679 2.66323 6.71083 2.86329 5.88081 3.25229C5.0508 3.64129 4.31739 4.20954 3.73343 4.91611C2.7169 6.14918 1.65343 8.38171 2.3585 12.0201C3.48383 17.8302 11.9222 22.5982 12.2785 22.7934C12.4373 22.882 12.6161 22.9285 12.798 22.9285C12.9798 22.9285 13.1586 22.882 13.3174 22.7934C13.6758 22.594 22.1142 17.826 23.2374 12.0201C23.9468 8.38171 22.8833 6.14918 21.8668 4.91611ZM21.1478 11.6148C20.3521 15.7225 14.5686 19.5433 12.8001 20.6292C10.3084 19.1252 5.18196 15.3492 4.4577 11.6148C3.9105 8.79238 4.6593 7.15291 5.38463 6.27398C5.76821 5.81116 6.24946 5.43897 6.79386 5.18411C7.33827 4.92924 7.93233 4.79801 8.53343 4.79984C9.17545 4.75169 9.81899 4.87073 10.4013 5.14534C10.9836 5.41996 11.4848 5.84078 11.8561 6.36678C11.9476 6.53524 12.0827 6.67607 12.2472 6.77458C12.4117 6.8731 12.5996 6.92569 12.7913 6.92689C12.983 6.92809 13.1716 6.87785 13.3373 6.78139C13.503 6.68494 13.6398 6.54581 13.7334 6.37851C14.104 5.84841 14.6063 5.42403 15.1908 5.1472C15.7753 4.87037 16.4219 4.75065 17.0668 4.79984C17.6691 4.79691 18.2646 4.9276 18.8104 5.18251C19.3562 5.43741 19.8387 5.81019 20.223 6.27398C20.9462 7.15291 21.695 8.79238 21.1478 11.6148Z" fill="#CFCFCF"/>
</svg>
